<svg width="16" height="16" viewBox="0 0 16 16" fill="none" xmlns="http://www.w3.org/2000/svg"><g clip-path="url(#a)"><path d="M10 2.667h2c.184 0 .333-.15.333-.334v-2A.333.333 0 0 0 12 0h-2a3.67 3.67 0 0 0-3.667 3.667V6H4a.333.333 0 0 0-.333.333v2c0 .184.149.334.333.334h2.333v7c0 .184.15.333.334.333h2c.184 0 .333-.15.333-.333v-7h2.333c.144 0 .27-.092.316-.228l.667-2A.333.333 0 0 0 12 6H9V3.667a1 1 0 0 1 1-1z" fill="#2196F3"/></g><defs><clipPath id="a"><path fill="#fff" d="M0 0h16v16H0z"/></clipPath></defs></svg>