<svg width="16" height="16" viewBox="0 0 16 16" fill="none" xmlns="http://www.w3.org/2000/svg"><g clip-path="url(#a)" fill="#2196F3"><path d="M2 4a2 2 0 1 0 0-4 2 2 0 0 0 0 4zM.333 5.333h3.334c.184 0 .333.15.333.334v10c0 .184-.15.333-.333.333H.333A.333.333 0 0 1 0 15.667v-10c0-.184.15-.334.333-.334zM13.6 4.875a5.067 5.067 0 0 0-4.276.709.333.333 0 0 0-.324-.25H5.667a.333.333 0 0 0-.333.333v10c0 .184.149.333.333.333H9c.184 0 .334-.15.334-.333V8.48a1.75 1.75 0 0 1 1.8-.37c.584.288.929.908.866 1.557v6c0 .184.15.333.334.333h3.333c.184 0 .333-.15.333-.333V8.995c-.038-2.739-1.326-3.753-2.4-4.12z"/></g><defs><clipPath id="a"><path fill="#fff" d="M0 0h16v16H0z"/></clipPath></defs></svg>