<svg width="282" height="48" viewBox="0 0 282 48" fill="none" xmlns="http://www.w3.org/2000/svg"><path d="M59.67 43.991h6.397v3.968H54.894V29.57h4.777v14.422zm15.726-33.447c.579.782.876 1.719.876 2.827 0 1.613-.636 2.86-1.9 3.732-1.265.88-3.1 1.311-5.487 1.311h-9.487V.017h8.966c2.289 0 4.032.432 5.23 1.304 1.199.872 1.794 2.037 1.794 3.512 0 .88-.207 1.662-.628 2.355-.422.692-1.017 1.238-1.785 1.645 1.033.35 1.834.93 2.421 1.711zM64.1 7.317h3.595c1.71 0 2.57-.595 2.57-1.784 0-1.174-.86-1.76-2.57-1.76H64.1v3.544zm7.032 5.475c0-1.246-.892-1.865-2.669-1.865H64.1v3.731h4.363c1.785 0 2.67-.627 2.67-1.866zM55.655 9.256c0 1.752-.43 3.333-1.298 4.734-.867 1.402-2.05 2.493-3.57 3.292-1.512.79-3.222 1.19-5.115 1.19-1.892 0-3.602-.4-5.115-1.19-1.512-.79-2.702-1.89-3.57-3.292-.867-1.401-1.297-2.974-1.297-4.734 0-1.76.43-3.332 1.297-4.734.868-1.401 2.05-2.493 3.57-3.292C42.07.44 43.78.04 45.672.04c1.9 0 3.603.4 5.115 1.19 1.513.79 2.703 1.89 3.57 3.292.868 1.402 1.298 2.982 1.298 4.734zm-5.132 0c0-.994-.215-1.874-.645-2.64a4.618 4.618 0 0 0-1.743-1.784c-.736-.424-1.554-.636-2.463-.636s-1.727.212-2.462.636a4.617 4.617 0 0 0-1.744 1.784c-.43.766-.644 1.646-.644 2.64 0 .994.214 1.874.644 2.64a4.617 4.617 0 0 0 1.744 1.784c.735.424 1.553.636 2.462.636.91 0 1.727-.212 2.463-.636a4.618 4.618 0 0 0 1.744-1.784c.43-.766.644-1.646.644-2.64zm18.775 38.711h4.809v-18.39h-4.81v18.39zm-22.452-8.58l-8.817-9.818h-4.017v18.39h4.81v-9.794l8.817 9.81h4.008v-18.39h-4.801v9.803zm44.912-.016l-8.817-9.81h-4.025v18.39h4.802V38.15l8.833 9.818h4.008v-18.39h-4.801v9.794zM219.32 14.57c-1.024 0-2.074-.163-3.131-.481-1.058-.318-1.992-.741-2.794-1.263l-1.669 3.691c.851.595 1.967 1.06 3.339 1.418 1.371.35 2.776.53 4.231.53 1.71 0 3.165-.261 4.363-.775 1.198-.513 2.099-1.197 2.694-2.061.595-.864.9-1.825.9-2.885 0-1.23-.33-2.208-.991-2.925a5.842 5.842 0 0 0-2.339-1.564c-.901-.326-2.033-.636-3.396-.92-1.215-.253-2.099-.498-2.644-.734-.546-.236-.819-.595-.819-1.067 0-.473.232-.856.695-1.15.462-.293 1.198-.44 2.206-.44 1.603 0 3.264.457 4.975 1.37l1.561-3.724c-.876-.505-1.884-.888-3.024-1.149A15.673 15.673 0 0 0 219.99.05c-1.727 0-3.182.252-4.38.758-1.19.505-2.082 1.19-2.677 2.061a5.067 5.067 0 0 0-.901 2.925c0 1.23.322 2.208.975 2.934a5.668 5.668 0 0 0 2.33 1.58c.909.326 2.033.636 3.388.921 1.232.269 2.124.53 2.678.774.553.244.834.62.834 1.124.009.962-.966 1.443-2.917 1.443zm-30.558.163h-6.206V.016h-4.801v18.456h11.007v-3.74zM4.826 17.33c1.504.782 3.198 1.173 5.082 1.173 1.33 0 2.669-.195 4-.578 1.33-.383 2.512-.945 3.536-1.67V8.921h-4.487v4.856a6.521 6.521 0 0 1-2.743.579c-.992 0-1.876-.22-2.645-.644a4.54 4.54 0 0 1-1.793-1.792c-.43-.766-.644-1.638-.644-2.616 0-1.532.47-2.762 1.413-3.683.942-.92 2.181-1.377 3.718-1.377 1.694 0 3.149.66 4.363 1.972l3.231-2.884A8.701 8.701 0 0 0 14.52.929c-1.33-.554-2.843-.84-4.512-.84-1.917 0-3.636.392-5.156 1.174-1.52.782-2.71 1.874-3.57 3.275C.43 5.94 0 7.528 0 9.297c0 1.768.43 3.357 1.28 4.758.86 1.402 2.042 2.494 3.546 3.276zM27.22.016h-4.801v18.456h11.007V14.74H27.22V.016zm2.52 37.49c.058.415.083.847.083 1.279 0 .44-.025.863-.083 1.279a8.707 8.707 0 0 1-1.214 3.446c-.868 1.402-2.05 2.494-3.57 3.292-1.512.79-3.223 1.19-5.115 1.19h-9.71c-1.9 0-3.603-.4-5.115-1.19-1.512-.79-2.702-1.89-3.57-3.292C.578 42.11.15 40.536.15 38.776c0-1.76.43-3.332 1.297-4.734.868-1.401 2.05-2.493 3.57-3.291 1.512-.79 3.223-1.19 5.115-1.19h9.71c1.9 0 3.602.4 5.115 1.19 1.512.79 2.702 1.89 3.57 3.291a8.872 8.872 0 0 1 1.214 3.463zm-4.908 1.287c0-2.803-2.306-5.085-5.157-5.085-2.842 0-5.156 2.274-5.156 5.085 0 2.803 2.306 5.084 5.156 5.084 2.851-.008 5.157-2.281 5.157-5.084zM161.659 17.29c1.495.782 3.181 1.173 5.065 1.173 1.645 0 3.124-.285 4.438-.863 1.314-.579 2.413-1.402 3.28-2.477l-3.231-2.885c-1.165 1.386-2.578 2.078-4.231 2.078-.975 0-1.842-.212-2.603-.636a4.407 4.407 0 0 1-1.768-1.784c-.421-.766-.628-1.646-.628-2.64 0-.994.207-1.874.628-2.64a4.457 4.457 0 0 1 1.768-1.784c.761-.424 1.628-.636 2.603-.636 1.661 0 3.074.693 4.231 2.078l3.231-2.884a8.566 8.566 0 0 0-3.28-2.477c-1.314-.57-2.793-.864-4.438-.864-1.884 0-3.57.391-5.065 1.173-1.496.782-2.669 1.874-3.529 3.276-.851 1.401-1.281 2.982-1.281 4.758 0 1.768.43 3.357 1.281 4.759.86 1.393 2.033 2.485 3.529 3.275zm63.174 12.263l-6.156 10.625-6.231-10.625h-4.181v18.406h4.694v-9.492l4.511 7.675h2.256l4.62-7.944.049 9.753h4.669l-.05-18.406h-4.181v.008zM203.439 9.85c0 2.892-1.826 4.335-4.082 4.335-2.273 0-3.958-1.443-3.958-4.335V0h-4.81v10.006c0 2.68.744 4.758 2.223 6.217 1.479 1.458 3.826 2.192 6.495 2.192s5.214-.734 6.694-2.192c1.479-1.459 2.223-3.536 2.223-6.217V0h-4.785v9.851zm-4.809 29.553c0 2.892-1.827 4.335-4.083 4.335-2.272 0-3.958-1.443-3.958-4.335v-9.851h-4.809v10.006c0 2.68.744 4.758 2.223 6.217 1.479 1.458 3.826 2.191 6.495 2.191s5.214-.733 6.693-2.191c1.479-1.459 2.223-3.537 2.223-6.217V29.553h-4.784v9.85zm-19.684 2.77l3.876 5.793h-5.438l-3.256-4.897h-2.784v4.897h-4.802v-18.43h7.942c1.628 0 3.032.277 4.231.83 1.198.555 2.123 1.345 2.768 2.372.653 1.026.975 2.232.975 3.617 0 1.337-.306 2.494-.909 3.488-.612.994-1.479 1.768-2.603 2.33zm-1.62-5.818c0-.863-.264-1.523-.793-2.004-.529-.472-1.314-.709-2.363-.709h-2.835v5.394h2.835c1.041 0 1.834-.236 2.363-.7.529-.457.793-1.125.793-1.98zM277.191.024v9.803l-8.817-9.81h-4.017v18.39h4.802V8.603l8.833 9.81H282V.024h-4.809zm-46.516 18.44h4.802V.073h-4.802v18.39zm27.857-13.942c.859 1.402 1.297 2.974 1.297 4.734 0 1.76-.43 3.333-1.297 4.734-.868 1.402-2.05 2.493-3.57 3.292-1.512.79-3.223 1.19-5.115 1.19-1.901 0-3.603-.4-5.124-1.19-1.512-.79-2.702-1.89-3.569-3.292-.868-1.401-1.298-2.974-1.298-4.734 0-1.76.43-3.332 1.298-4.734.859-1.401 2.049-2.493 3.569-3.292 1.513-.79 3.223-1.19 5.124-1.19 1.9 0 3.603.4 5.115 1.19 1.52.799 2.71 1.899 3.57 3.292zm-3.835 4.734c0-.994-.214-1.874-.644-2.64a4.616 4.616 0 0 0-1.744-1.784c-.735-.424-1.562-.636-2.462-.636-.909 0-1.727.212-2.463.636a4.614 4.614 0 0 0-1.743 1.784c-.43.766-.645 1.646-.645 2.64 0 .994.215 1.874.645 2.64a4.614 4.614 0 0 0 1.743 1.784c.736.424 1.554.636 2.463.636s1.727-.212 2.462-.636a4.616 4.616 0 0 0 1.744-1.784c.43-.766.644-1.646.644-2.64zM161.56 34.051c.859 1.401 1.297 2.974 1.297 4.734 0 1.76-.43 3.332-1.297 4.734-.868 1.401-2.05 2.493-3.57 3.291-1.512.79-3.223 1.19-5.115 1.19-1.901 0-3.603-.4-5.124-1.19-1.512-.79-2.702-1.89-3.57-3.291-.867-1.402-1.297-2.974-1.297-4.734 0-1.76.43-3.333 1.297-4.734.86-1.402 2.05-2.494 3.57-3.292 1.513-.79 3.223-1.19 5.124-1.19 1.9 0 3.603.4 5.115 1.19 1.52.798 2.702 1.89 3.57 3.292zm-3.835 4.734c0-.994-.215-1.874-.644-2.64a4.616 4.616 0 0 0-1.744-1.785c-.735-.423-1.562-.635-2.462-.635-.909 0-1.727.212-2.463.635a4.614 4.614 0 0 0-1.743 1.785c-.43.765-.645 1.645-.645 2.64 0 .994.215 1.874.645 2.64a4.613 4.613 0 0 0 1.743 1.784c.736.424 1.554.635 2.463.635s1.727-.211 2.462-.635a4.616 4.616 0 0 0 1.744-1.785c.429-.765.644-1.645.644-2.64zM108.995.016h-4.801v18.456h11.007V14.74h-6.206V.016zm-2.85 40.358h7.982V36.69h-7.982v-3.104h9.056V29.57h-13.833v18.39h13.833v-4.017h-9.056v-3.569zM91.741.016l7.958 18.44H94.41l-1.413-3.586h-7.594l-1.413 3.585h-5.18L86.742.016h5zm-.231 11.008l-2.306-5.899-2.305 5.9h4.61zM131.249.016h-4.809v18.447h4.809V.016zm9.297 33.407l-.009-3.87h-14.089v18.414h4.793v-6.77h7.949v-3.88h-7.949v-3.894h9.305zm13.147-14.943V.09h-4.801v9.802L140.074.073h-4.016v18.39h4.802V8.661l8.833 9.81h4v.009z" fill="#fff"/></svg>